<?xml version="1.0" standalone="no"?>

<svg version="1.0" xmlns="http://www.w3.org/2000/svg" width="256.000000pt" height="256.000000pt" viewBox="0 0 256.000000 256.000000" preserveAspectRatio="xMidYMid meet">
<metadata>
Created by potrace 1.16, written by Peter Selinger 2001-2019
</metadata>
<g transform="translate(0.000000,256.000000) scale(0.100000,-0.100000)" fill="#000000" stroke="none">
<path d="M400 2195 c0 -225 4 -384 11 -417 27 -132 129 -273 246 -341 103 -59&#xA;159 -70 388 -74 203 -3 209 -3 185 14 -76 55 -136 112 -180 170 -111 147 -144&#xA;274 -139 543 2 96 2 241 1 323 l-2 147 -255 0 -255 0 0 -365z"></path>
<path d="M1523 2268 c-257 -260 -294 -301 -324 -363 -31 -64 -34 -77 -34 -160&#xA;0 -99 9 -125 72 -202 31 -38 117 -90 179 -108 18 -5 111 86 572 552 303 307&#xA;554 561 558 566 4 4 -159 7 -362 7 l-370 0 -291 -292z"></path>
<path d="M801 1224 c-132 -35 -227 -101 -302 -208 -91 -129 -93 -140 -97 -609&#xA;l-3 -407 255 0 256 0 1 53 c1 28 0 180 -1 337 -1 297 6 387 41 489 43 123 143&#xA;253 253 327 l51 34 -200 -1 c-141 0 -216 -5 -254 -15z"></path>
<path d="M1378 1150 c-76 -31 -124 -68 -162 -123 -46 -70 -59 -115 -54 -202 6&#xA;-130 28 -159 381 -515 l307 -310 355 0 c299 0 355 2 355 14 0 8 -188 205 -418&#xA;438 -230 232 -482 489 -561 571 -79 81 -147 147 -150 146 -3 0 -27 -9 -53 -19z"></path>
</g>
</svg>